<?xml version="1.0" encoding="UTF-8" standalone="no" ?>
<!DOCTYPE svg PUBLIC "-//W3C//DTD SVG 1.1//EN" "http://www.w3.org/Graphics/SVG/1.1/DTD/svg11.dtd">
<svg xmlns="http://www.w3.org/2000/svg" xmlns:xlink="http://www.w3.org/1999/xlink" version="1.1" width="129.5" height="64" viewBox="0 0 129.5 64" xml:space="preserve">
<desc>Created with Fabric.js 5.3.0</desc>
<defs>
</defs>
<g transform="matrix(1 0 0 1 90.2768784176 32)" id="hxkIXvt8JsfhGBuPe-S4z"  >
<path style="stroke: none; stroke-width: 1; stroke-dasharray: none; stroke-linecap: butt; stroke-dashoffset: 0; stroke-linejoin: miter; stroke-miterlimit: 4; fill: rgb(15,51,173); fill-rule: nonzero; opacity: 1;"  transform=" translate(-16.4025365, -18.3845856481)" d="M 0.96496 36.6829 L 8.23842 36.6829 C 8.30914 36.6879 8.38016 36.6785 8.44714 36.6553 C 8.51412 36.6321 8.57566 36.5955 8.62802 36.5477 C 8.68038 36.5 8.72246 36.4422 8.7517 36.3777 C 8.78095 36.3132 8.79673 36.2435 8.79811 36.1728 L 8.79811 16.1241 C 8.79811 10.439 11.5966 7.44335 16.4281 7.44335 C 21.2596 7.44335 24.007 10.439 24.007 16.1241 L 24.007 36.1753 C 24.0083 36.2461 24.0241 36.3158 24.0534 36.3803 C 24.0826 36.4447 24.1247 36.5026 24.1771 36.5503 C 24.2294 36.598 24.291 36.6346 24.3579 36.6578 C 24.4249 36.6811 24.4959 36.6904 24.5666 36.6854 L 31.8401 36.6854 C 31.9108 36.6904 31.9818 36.6811 32.0488 36.6578 C 32.1158 36.6346 32.1773 36.598 32.2297 36.5503 C 32.2821 36.5026 32.3241 36.4447 32.3534 36.3803 C 32.3826 36.3158 32.3984 36.2461 32.3998 36.1753 L 32.3998 16.1752 C 32.3998 7.59511 27.6194 0.0824585 16.4268 0.0824585 C 5.23423 0.0824585 0.405273 7.59511 0.405273 16.1752 L 0.405273 36.1753 C 0.406995 36.2458 0.423035 36.3153 0.452428 36.3795 C 0.481821 36.4436 0.523951 36.5012 0.576273 36.5486 C 0.628595 36.5961 0.690018 36.6324 0.756827 36.6555 C 0.823637 36.6786 0.894442 36.6879 0.96496 36.6829 Z" stroke-linecap="round" />
</g>
<g transform="matrix(1 0 0 1 120.5076304031 29.0318131481)" id="kBPoyCOgxWcQCSP1IDpS1"  >
<path style="stroke: none; stroke-width: 1; stroke-dasharray: none; stroke-linecap: butt; stroke-dashoffset: 0; stroke-linejoin: miter; stroke-miterlimit: 4; fill: rgb(15,51,173); fill-rule: nonzero; opacity: 1;"  transform=" translate(-8.47172, -21.870288)" d="M 10.913 43.1406 C 13.5581 43.1406 15.2871 42.8358 16.0499 42.531 C 16.1637 42.4857 16.2623 42.4092 16.3344 42.3104 C 16.4065 42.2116 16.4492 42.0944 16.4576 41.9725 L 16.4576 35.9787 C 16.4576 35.6229 16.3042 35.4201 15.8468 35.4201 C 15.4902 35.4201 14.4731 35.6229 13.6591 35.6229 C 10.5054 35.6229 9.13298 34.456 9.13298 31.7141 L 9.13298 14.8142 L 15.8468 14.8142 C 15.9948 14.8129 16.1364 14.7536 16.241 14.6491 C 16.3457 14.5447 16.4051 14.4034 16.4064 14.2556 L 16.4064 7.70709 C 16.4051 7.55936 16.3457 7.41805 16.241 7.31359 C 16.1364 7.20912 15.9948 7.14985 15.8468 7.14852 L 8.87869 7.14852 L 8.87869 1.46334 C 8.87869 0.853754 8.62312 0.599976 8.16565 0.599976 L 1.29854 0.599976 C 0.740128 0.599976 0.48584 0.855029 0.48584 1.46334 L 0.48584 32.5801 C 0.48584 40.145 4.70654 43.1406 10.913 43.1406 Z" stroke-linecap="round" />
</g>
<g transform="matrix(1 0 0 1 32.4805513641 29.0318171481)" id="A9RuqOzXX66dkMgpzswps"  >
<path style="stroke: none; stroke-width: 1; stroke-dasharray: none; stroke-linecap: butt; stroke-dashoffset: 0; stroke-linejoin: miter; stroke-miterlimit: 4; fill: rgb(15,51,173); fill-rule: nonzero; opacity: 1;"  transform=" translate(0, 0)" d="M 2.44128 21.27031 C 5.08638 21.27031 6.81538 20.96551 7.57818 20.660709999999998 C 7.69198 20.615409999999997 7.790579999999999 20.538909999999998 7.862679999999999 20.440109999999997 C 7.934779999999999 20.341309999999996 7.977479999999999 20.224109999999996 7.985879999999999 20.102209999999996 L 7.985879999999999 14.108409999999996 C 7.985879999999999 13.752609999999995 7.8324799999999986 13.549809999999995 7.375079999999999 13.549809999999995 C 7.0184799999999985 13.549809999999995 6.001379999999999 13.752609999999995 5.187379999999999 13.752609999999995 C 2.033679999999999 13.752609999999995 0.6612599999999995 12.585709999999995 0.6612599999999995 9.843809999999996 L 0.6612599999999995 -7.056090000000003 L 0.6019599999999995 -20.406950000000002 C 0.6019599999999995 -21.016540000000003 0.3463899999999995 -21.270310000000002 -0.11108000000000051 -21.270310000000002 L -7.17318 -21.270310000000002 C -7.731590000000001 -21.270310000000002 -7.98588 -21.01526 -7.98588 -20.406950000000002 L -7.98588 10.709809999999997 C -7.98588 18.27471 -3.76518 21.270309999999995 2.441280000000001 21.270309999999995 z" stroke-linecap="round" />
</g>
<g transform="matrix(1 0 0 1 58.131995951 29.0318131481)" id="dL7F3nSE2_mjSMPlS-JTv"  >
<path style="stroke: none; stroke-width: 1; stroke-dasharray: none; stroke-linecap: butt; stroke-dashoffset: 0; stroke-linejoin: miter; stroke-miterlimit: 4; fill: rgb(15,51,173); fill-rule: nonzero; opacity: 1;"  transform=" translate(0, 0)" d="M 2.44128 21.27031 C 5.08638 21.27031 6.81538 20.96551 7.57818 20.660709999999998 C 7.69198 20.615409999999997 7.790579999999999 20.538909999999998 7.862679999999999 20.440109999999997 C 7.934779999999999 20.341309999999996 7.977479999999999 20.224109999999996 7.985879999999999 20.102209999999996 L 7.985879999999999 14.108409999999996 C 7.985879999999999 13.752609999999995 7.8324799999999986 13.549809999999995 7.375079999999999 13.549809999999995 C 7.0184799999999985 13.549809999999995 6.001379999999999 13.752609999999995 5.187379999999999 13.752609999999995 C 2.033679999999999 13.752609999999995 0.6612599999999995 12.585709999999995 0.6612599999999995 9.843809999999996 L 0.6612599999999995 -7.056090000000003 L -3.41957 -7.057610000000003 L -3.41957 -14.721770000000003 L 0.6612599999999995 -14.721770000000003 L 0.6230899999999995 -20.406950000000002 C 0.6230899999999995 -21.016540000000003 0.36751999999999946 -21.270310000000002 -0.08995000000000053 -21.270310000000002 L -7.173180000000001 -21.270310000000002 C -7.7315900000000015 -21.270310000000002 -7.985880000000002 -21.01526 -7.985880000000002 -20.406950000000002 L -7.985880000000002 -14.721770000000003 L -3.419570000000002 -14.727910000000003 L -3.419570000000002 -7.057620000000004 L -7.985880000000002 -7.057620000000004 L -7.985880000000002 10.709799999999998 C -7.985880000000002 18.274699999999996 -3.7651800000000017 21.2703 2.441279999999999 21.2703 z" stroke-linecap="round" />
</g>
<g transform="matrix(1 0 0 -1 8.0058942889 29.0318151481)" id="c38Bfw0UR7obAUMo8fj5A"  >
<path style="stroke: none; stroke-width: 1; stroke-dasharray: none; stroke-linecap: butt; stroke-dashoffset: 0; stroke-linejoin: miter; stroke-miterlimit: 4; fill: rgb(15,51,173); fill-rule: nonzero; opacity: 1;"  transform=" translate(0, 0)" d="M 2.44128 21.27031 C 5.08638 21.27031 6.81538 20.96551 7.57818 20.660709999999998 C 7.69198 20.615409999999997 7.790579999999999 20.538909999999998 7.862679999999999 20.440109999999997 C 7.934779999999999 20.341309999999996 7.977479999999999 20.224109999999996 7.985879999999999 20.102209999999996 L 7.985879999999999 14.108409999999996 C 7.985879999999999 13.752609999999995 7.8324799999999986 13.549809999999995 7.375079999999999 13.549809999999995 C 7.0184799999999985 13.549809999999995 6.001379999999999 13.752609999999995 5.187379999999999 13.752609999999995 C 2.033679999999999 13.752609999999995 0.6612599999999995 12.585709999999995 0.6612599999999995 9.843809999999996 L 0.6612599999999995 -7.056090000000003 L 7.37508 -7.056090000000003 C 7.523079999999999 -7.0573900000000025 7.66468 -7.116690000000003 7.769279999999999 -7.221190000000003 C 7.8739799999999995 -7.325590000000003 7.93338 -7.466890000000003 7.934679999999999 -7.614690000000003 L 7.934679999999999 -14.163200000000003 C 7.93338 -14.310930000000003 7.8739799999999995 -14.452240000000003 7.769279999999999 -14.556700000000003 C 7.66468 -14.661170000000002 7.523079999999999 -14.720440000000004 7.37508 -14.721770000000003 L 0.4069699999999994 -14.721770000000003 L 0.4069699999999994 -20.406950000000002 C 0.4069699999999994 -21.016540000000003 0.15139999999999937 -21.270310000000002 -0.3060700000000006 -21.270310000000002 L -7.173180000000001 -21.270310000000002 C -7.7315900000000015 -21.270310000000002 -7.985880000000002 -21.01526 -7.985880000000002 -20.406950000000002 L -7.985880000000002 10.709809999999997 C -7.985880000000002 18.27471 -3.7651800000000017 21.270309999999995 2.441279999999999 21.270309999999995 z" stroke-linecap="round" />
</g>
</svg>